# AST/ASF file generated using VICON BodyLanguage
# -----------------------------------------------
:version 1.10
:name VICON
:units
  mass 1.0
  length 0.45
  angle deg
:documentation
   .ast/.asf automatically generated from VICON data using
   VICON BodyBuilder and BodyLanguage model FoxedUp or BRILLIANT.MOD
:root
   order TX TY TZ RX RY RZ
   axis XYZ
   position 0 0 0  
   orientation 0 0 0 
:bonedata
  begin
     id 1 
     name lhipjoint
     direction 0.643822 -0.745931 0.170529 
     length 2.62041 
     axis 0 0 0  XYZ
  end
  begin
     id 2 
     name lfemur
     direction 0.34202 -0.939693 0  
     length 7.92179  
     axis 0 0 20  XYZ
    dof rx ry rz
    limits (-160.0 20.0)
           (-70.0 70.0)
           (-60.0 70.0)
  end
  begin
     id 3 
     name ltibia
     direction 0.34202 -0.939693 0   
     length 8.16326   
     axis 0 0 20   XYZ
    dof rx
    limits (-10.0 170.0)
  end
  begin
     id 4 
     name lfoot
     direction 0.0837341 -0.230058 0.969568   
     length 1.94455   
     axis -90 7.62852e-016 20   XYZ
    dof rx rz
    limits (-45.0 90.0)
           (-70.0 20.0)
  end
  begin
     id 5 
     name ltoes
     direction 1.5356e-011 -4.21695e-011 1   
     length 0.978804   
     axis -90 7.62852e-016 20   XYZ
    dof rx
    limits (-90.0 20.0)
  end
  begin
     id 6 
     name rhipjoint
     direction -0.656883 -0.73503 0.168037   
     length 2.65927  
     axis 0 0 0  XYZ 
  end
  begin
     id 7 
     name rfemur
     direction -0.34202 -0.939693 0   
     length 7.58746   
     axis 0 0 -20   XYZ
    dof rx ry rz
    limits (-160.0 20.0)
           (-70.0 70.0)
           (-70.0 60.0)
  end
  begin
     id 8 
     name rtibia
     direction -0.342117 -0.939657 0   
     length 8.27303   
     axis 0 0 -20   XYZ
    dof rx
    limits (-10.0 170.0)
 end
 begin
     id 9 
     name rfoot
     direction -0.0685862 -0.188439 0.979687   
     length 2.13088  
     axis -90 -7.62852e-016 -20   XYZ
    dof rx rz
    limits (-45.0 90.0)
           (-20.0 70.0)
  end
  begin
     id 10 
     name rtoes
     direction -1.53538e-011 -4.21514e-011 1   
     length 1.07326   
     axis -90 -7.62852e-016 -20   XYZ
    dof rx
    limits (-90.0 20.0)
  end
  begin
     id 11 
     name lowerback
     direction -0.0358974 0.997216 0.065354   
     length 1.87174   
     axis 0 0 0   XYZ
    dof rx ry rz
    limits (-20.0 45.0)
           (-30.0 30.0)
           (-30.0 30.0)
  end
  begin
     id 12 
     name upperback
     direction 0.0202028 0.998565 0.0495864   
     length 1.8684   
     axis 0 0 0   XYZ
    dof rx ry rz
    limits (-20.0 45.0)
           (-30.0 30.0)
           (-30.0 30.0)
  end
  begin
     id 13 
     name thorax
     direction 0.0366367 0.999163 0.0182199   
     length 1.87747   
     axis 0 0 0   XYZ
    dof rx ry rz
    limits (-20.0 45.0)
           (-30.0 30.0)
           (-30.0 30.0)
  end
  begin
     id 14 
     name lowerneck
     direction 0.0284381 0.999578 -0.00598196   
     length 1.84583   
     axis 0 0 0   XYZ
    dof rx ry rz
    limits (-20.0 45.0)
           (-30.0 30.0)
           (-30.0 30.0)
  end
  begin
     id 15 
     name upperneck
     direction -0.0888142 0.993333 -0.0734973   
     length 1.84467   
     axis 0 0 0   XYZ
    dof rx ry rz
    limits (-20.0 45.0)
           (-30.0 30.0)
           (-30.0 30.0)
  end
  begin
     id 16
     name head
     direction -0.0296474 0.999102 -0.0302696  
     length 1.86566  
     axis 0 0 0   XYZ
    dof rx ry rz
    limits (-20.0 45.0)
           (-30.0 30.0)
           (-30.0 30.0)
  end
  begin
     id 17 
     name lclavicle
     direction 0.933925 0.35714 -0.0153523  
     length 3.93442  
     axis 0 0 0   XYZ
    dof ry rz
    limits (-20.0 10.0)
           (0.0 20.0)
  end
  begin
     id 18 
     name lhumerus
     direction 1 -4.48967e-011 2.12044e-027   
     length 5.78174   
     axis 180 -30 -90   XYZ
    dof rx ry rz
    limits (-60.0 90.0)
           (-90.0 90.0)
           (-90.0 90.0)
  end
  begin
     id 19
     name lradius
     direction 1 -4.48972e-011 6.45701e-027   
     length 3.53992   
     axis 180 -30 -90   XYZ
    dof rx
    limits (-10.0 170.0)
  end
  begin
     id 20
     name lwrist
     direction 1 -4.48981e-011 1.70244e-026   
     length 1.76996   
     axis -1.1226e-014 90 90   XYZ
    dof ry
    limits (-180.0 0.0)
 end
  begin
     id 21 
     name lhand
     direction 1 -4.4879e-011 3.40615e-026   
     length 0.550243   
     axis -2.17265e-014 90 90   XYZ
    dof rx rz
    limits (-90.0 90.0)
           (-45.0 45.0)
  end
  begin
     id 22 
     name lfingers
     direction 1 -4.49029e-011 6.80911e-026   
     length 0.44362   
     axis -4.34526e-014 90 90   XYZ
    dof rx
    limits (0.0 90.0)
  end
  begin
     id 23
     name lthumb
     direction 0.707107 -6.34923e-011 0.707107   
     length 0.636952   
     axis -90 45 -1.62303e-014   XYZ
    dof rx rz
    limits (-45.0 45.0)
           (-45.0 45.0)
  end
  begin
     id 24 
     name rclavicle
     direction -0.950832 0.305106 0.0531883   
     length 3.96125  
     axis 0 0 0   XYZ 
    dof ry rz
    limits (-10.0 20.0)
           (-20.0 0.0)
  end
  begin
     id 25 
     name rhumerus
     direction -1 -4.48961e-011 -6.07392e-030  
     length 5.79352   
     axis 180 30 90   XYZ
    dof rx ry rz
    limits (-90.0 60.0)
           (-90.0 90.0)
           (-90.0 90.0)
  end
  begin
     id 26 
     name rradius
     direction -1 -4.48964e-011 5.97548e-027   
     length 3.37081   
     axis 180 30 90   XYZ
    dof rx
    limits (-10.0 170.0)
  end
  begin
     id 27 
     name rwrist
     direction -1 -4.49021e-011 1.7023e-026   
     length 1.68541   
     axis -1.1226e-014 -90 -90   XYZ
    dof ry
    limits (-180.0 0.0)
  end
  begin
     id 28
     name rhand
     direction -1 -4.48867e-011 3.40563e-026   
     length 0.679827   
     axis -2.17265e-014 -90 -90   XYZ
    dof rx rz
    limits (-90.0 90.0)
           (-45.0 45.0)
  end
  begin
     id 29
     name rfingers
     direction -1 -4.49024e-011 6.80917e-026   
     length 0.548094   
     axis -4.34526e-014 -90 -90   XYZ
    dof rx
    limits (0.0 90.0)
  end
  begin
     id 30
     name rthumb
     direction -0.707107 -6.3488e-011 0.707107   
     length 0.786956   
     axis -90 -45 1.62303e-014   XYZ
    dof rx rz
    limits (-45.0 45.0)
           (-45.0 45.0)
  end
:hierarchy
  begin
    root lhipjoint rhipjoint lowerback
    lhipjoint lfemur
    lfemur ltibia
    ltibia lfoot
    lfoot ltoes
    rhipjoint rfemur
    rfemur rtibia
    rtibia rfoot
    rfoot rtoes
    lowerback upperback
    upperback thorax
    thorax lowerneck lclavicle rclavicle
    lowerneck upperneck
    upperneck head
    lclavicle lhumerus
    lhumerus lradius
    lradius lwrist
    lwrist lhand lthumb
    lhand lfingers
    rclavicle rhumerus
    rhumerus rradius
    rradius rwrist
    rwrist rhand rthumb
    rhand rfingers
  end

#!OML:ASF H:\Terrain\Patient Classification 1\PaulMetrics\Match1Take2\PaulMetrics.ASF
:FULLY-SPECIFIED
:DEGREES
309
root 2.70854 17.8352 -26.9806 12.7884 -48.0422 3.71085
lowerback -4.13633 -0.583319 -6.17873
upperback -6.05764 -0.739282 1.51598
thorax -3.88844 -0.112579 5.04394
lowerneck -0.540534 13.234 10.009
upperneck 8.07429 18.6067 -12.8502
head 4.65499 9.05713 -4.41654
rclavicle -4.44781e-014 1.15295e-014
rhumerus -56.3528 16.7059 -90.9778
rradius 44.7702
rwrist -10.0143
rhand -10.1049 -27.6647
rfingers 7.12502
rthumb 15.8826 -57.0333
lclavicle -4.44781e-014 1.15295e-014
lhumerus -49.0763 -17.3794 85.5682
lradius 72.4503
lwrist 11.8567
lhand -21.3049 -10.8296
lfingers 7.12502
lthumb 5.07997 19.0895
rfemur -43.3631 0.801074 15.25
rtibia 48.3433
rfoot -9.21286 -15.2913
rtoes -17.3623
lfemur -21.1915 -2.23196 -28.4775
ltibia 28.1247
lfoot -23.1149 3.236
ltoes -25.5227
310
root 2.61957 17.8347 -26.9089 12.7741 -47.3123 3.82581
lowerback -4.00838 -0.67065 -6.04079
upperback -6.0825 -0.86568 1.50541
thorax -3.96958 -0.178156 4.95522
lowerneck -0.794139 13.1511 9.58818
upperneck 8.14223 18.4654 -12.5671
head 4.63462 8.97493 -4.27133
rclavicle 1.10673e-013 1.47101e-014
rhumerus -56.3539 16.7412 -90.902
rradius 44.5251
rwrist -10.0091
rhand -10.1034 -28.2207
rfingers 7.12502
rthumb 15.8841 -57.5892
lclavicle 1.10673e-013 1.47101e-014
lhumerus -48.8304 -17.798 85.5919
lradius 73.364
lwrist 12.0582
lhand -21.5172 -10.3
lfingers 7.12502
lthumb 4.87493 19.6239
rfemur -43.5151 0.884192 14.8239
rtibia 46.0327
rfoot -9.51873 -15.6039
rtoes -15.7006
lfemur -20.7752 -2.95434 -28.3809
ltibia 27.9915
lfoot -23.3871 3.13457
ltoes -24.7821
311
root 2.5328 17.8183 -26.8739 13.8605 -46.5553 3.95964
lowerback -4.6629 -0.815458 -6.33041
upperback -6.46816 -1.03274 1.54723
thorax -3.98782 -0.242782 5.15668
lowerneck -0.75377 13.0343 9.39765
upperneck 7.98718 18.2848 -12.4429
head 4.53087 8.89217 -4.23464
rclavicle -2.85504e-014 1.07344e-014
rhumerus -56.8243 16.9261 -91.1212
rradius 44.7782
rwrist -10.7305
rhand -10.9739 -29.9907
rfingers 7.12502
rthumb 15.0456 -59.424
lclavicle -2.85504e-014 1.07344e-014
lhumerus -48.5299 -18.2006 85.6138
lradius 74.1324
lwrist 12.163
lhand -21.9234 -9.99533
lfingers 7.12502
lthumb 4.48276 19.9372
rfemur -44.8961 1.24452 14.3518
rtibia 43.6097
rfoot -9.60134 -16.4195
rtoes -14.856
lfemur -21.61 -2.60256 -28.2501
ltibia 27.6797
lfoot -23.1458 1.90987
ltoes -23.4324
312
root 2.41476 17.8172 -26.7772 13.2136 -46.3648 3.81559
lowerback -4.20259 -0.705914 -6.23292
upperback -6.18286 -0.899858 1.58151
thorax -3.96167 -0.183579 5.14239
lowerneck -0.751557 12.9465 9.41914
upperneck 7.88731 18.174 -12.6184
head 4.50641 8.83488 -4.30292
rclavicle 1.11245e-013 1.19271e-015
rhumerus -57.0672 16.9624 -91.256
rradius 44.7935
rwrist -11.3464
rhand -11.5479 -31.4456
rfingers 7.12502
rthumb 14.4926 -60.9195
lclavicle 1.11245e-013 1.19271e-015
lhumerus -48.3178 -18.4144 85.6391
lradius 74.7326
lwrist 12.0285
lhand -22.0411 -9.82176
lfingers 7.12502
lthumb 4.36905 20.1132
rfemur -43.9121 2.19244 13.8675
rtibia 41.0603
rfoot -10.0421 -16.7626
rtoes -14.1781
lfemur -19.9717 -2.7751 -28.1211
ltibia 27.1945
lfoot -23.4019 2.13234
ltoes -22.4707
313
root 2.29882 17.8228 -26.6802 13.3849 -46.0185 3.78093
lowerback -4.62032 -0.80577 -6.11871
upperback -6.17371 -1.00955 1.58935
thorax -3.70205 -0.25335 5.07785
lowerneck -0.850293 12.9295 9.72632
upperneck 7.97791 18.1761 -12.8972
head 4.60511 8.82762 -4.41701
rclavicle -5.75233e-015 9.14409e-015
rhumerus -57.0261 17.2199 -91.7629
rradius 44.8179
rwrist -12.5092
rhand -11.3061 -32.5227
rfingers 7.12502
rthumb 14.7256 -61.9797
lclavicle -5.75233e-015 9.14409e-015
lhumerus -48.3542 -18.5304 85.4677
lradius 75.4024
lwrist 11.8779
lhand -22.2638 -10.1997
lfingers 7.12502
lthumb 4.15405 19.7396
rfemur -43.8426 2.75489 13.3084
rtibia 38.4352
rfoot -10.5267 -16.8762
rtoes -13.3013
lfemur -19.2956 -3.16137 -27.9951
ltibia 26.6751
lfoot -23.6103 2.15286
ltoes -21.636
314
root 2.18613 17.8332 -26.5735 13.1597 -45.6947 3.76763
lowerback -4.69809 -0.767127 -5.80115
upperback -6.06298 -0.956654 1.47228
thorax -3.54952 -0.249309 4.77328
lowerneck -0.828446 12.9026 9.99844
upperneck 8.04286 18.1552 -13.0337
head 4.6566 8.81937 -4.49649
rclavicle 2.06115e-014 -3.93594e-014
rhumerus -56.7585 16.5986 -91.2102
rradius 43.8712
rwrist -10.9246
rhand -8.78489 -29.417
rfingers 7.12502
rthumb 17.1535 -58.6798
lclavicle 2.06115e-014 -3.93594e-014
lhumerus -48.1636 -19.0476 85.3051
lradius 75.8684
lwrist 11.8902
lhand -22.5797 -10.28
lfingers 7.12502
lthumb 3.84898 19.665
rfemur -43.2962 3.33733 12.698
rtibia 35.7115
rfoot -10.592 -17.2117
rtoes -13.3866
lfemur -18.0848 -3.54603 -27.941
ltibia 25.9983
lfoot -23.8562 2.26867
ltoes -21.4035
